<?xml version="1.0" encoding="utf-8"?>
<!-- Generator: Adobe Illustrator 16.0.0, SVG Export Plug-In . SVG Version: 6.00 Build 0)  -->
<svg version="1.2" baseProfile="tiny" id="Layer_1" xmlns="http://www.w3.org/2000/svg" xmlns:xlink="http://www.w3.org/1999/xlink"
	 x="0px" y="0px" width="283.465px" height="283.465px" viewBox="0 0 283.465 283.465" xml:space="preserve">
<g>
	<path d="M161.745,133.306c-2.601,2.082-3.976,4.976-3.976,8.363c0,3.536,1.521,6.53,4.402,8.657
		c3.734,2.76,9.276,3.762,14.46,3.762c3.822,0,7.449-0.547,10.01-1.332l1.602-0.494v-12.74h-13.462v4.539h8.923v4.77
		c-5.6,1.219-14.522,1.031-18.835-2.154c-1.723-1.273-2.561-2.91-2.561-5.006c0-2.017,0.743-3.595,2.273-4.818
		c4.735-3.788,15.559-3.531,24.188-1.596l0.993-4.427C180.356,128.715,168.056,128.256,161.745,133.306z"/>
	<path d="M89.392,137.496c-2.162,1.729-3.305,4.181-3.305,7.086c0,2.549,1.087,4.766,3.145,6.406
		c3.031,2.414,7.843,3.285,12.092,3.285c2.142,0,4.14-0.221,5.694-0.576l1.764-0.404v-10.887H99.99v4.539h4.252v2.621
		c-3.871,0.455-9.476,0.027-12.182-2.127c-0.979-0.781-1.435-1.691-1.435-2.857c0-1.543,0.509-2.669,1.602-3.543
		c2.836-2.271,9.529-2.645,17.051-0.956l0.995-4.429C105.91,134.673,95.142,132.893,89.392,137.496z"/>
	<path d="M150.768,140.083l0.995-4.429c-5.079-1.141-14.345-2.455-19.358,1.558c-2.138,1.711-3.268,4.202-3.268,7.207
		c0,2.914,1.103,5.35,3.19,7.039c2.618,2.125,6.438,2.793,10.215,2.793c3.402,0,6.771-0.543,9.194-1.057l-0.942-4.439
		c-7.243,1.533-13.081,1.229-15.609-0.822c-1.029-0.832-1.509-1.949-1.509-3.514c0-1.645,0.497-2.809,1.564-3.664
		C137.78,138.718,143.585,138.469,150.768,140.083z"/>
	<polygon points="234.412,153.66 234.412,139.355 245.01,139.355 245.01,134.817 219.559,134.817 219.559,139.355 229.873,139.355 
		229.873,153.66 	"/>
	<polygon points="253.757,149.877 253.757,146.979 268.105,146.979 268.105,142.439 253.757,142.439 253.757,139.355 
		269.232,139.355 269.232,134.817 249.218,134.817 249.218,154.303 269.232,154.303 269.232,149.877 	"/>
	<rect x="117.789" y="134.812" width="4.539" height="19.491"/>
	<polygon points="33.267,148.994 23.507,129.162 14.232,129.162 14.232,154.303 18.771,154.303 18.771,129.818 30.821,154.303 
		35.843,154.303 46.728,130.299 46.728,154.301 51.267,154.301 51.267,129.162 42.259,129.162 	"/>
	<polygon points="79.601,154.303 84.895,154.303 73.199,134.812 66.933,134.812 55.359,154.303 71.335,154.303 71.335,149.877 
		63.267,149.877 70.07,138.418 	"/>
	<polygon points="204.309,134.812 192.735,154.303 208.712,154.303 208.712,149.877 200.642,149.877 207.445,138.418 
		216.977,154.303 222.27,154.303 210.575,134.812 	"/>
</g>
</svg>
